HIERARCHY
ROOT newVegas:Hips
{
	OFFSET 0.000000 96.479958 0.000000
	CHANNELS 6 Xposition Yposition Zposition Xrotation Yrotation Zrotation
	JOINT newVegas:Pelvis
	{
		OFFSET 0.000000 0.000000 0.000000
		CHANNELS 3 Xrotation Yrotation Zrotation
		JOINT newVegas:LeftUpLeg
		{
			OFFSET 18.735201 -5.666702 -4.541200
			CHANNELS 3 Xrotation Yrotation Zrotation
			JOINT newVegas:LeftLeg
			{
				OFFSET -0.021200 -31.938179 0.493100
				CHANNELS 3 Xrotation Yrotation Zrotation
				JOINT newVegas:LeftFoot
				{
					OFFSET 0.021200 -31.938179 -4.336299
					CHANNELS 3 Xrotation Yrotation Zrotation
					JOINT newVegas:LeftToeBase
					{
						OFFSET 0.943001 -26.722000 15.023500
						CHANNELS 3 Xrotation Yrotation Zrotation
						End Site
						{
							OFFSET 0.000000 30.670183 0.000000
						}
					}
				}
				JOINT newVegas:Left_PantLeg
				{
					OFFSET 0.663870 -9.044666 -1.108900
					CHANNELS 3 Xrotation Yrotation Zrotation
					End Site
					{
						OFFSET 1.415995 20.635357 0.000000
					}
				}
			}
		}
		JOINT newVegas:RightUpLeg
		{
			OFFSET -18.735201 -5.666702 -4.541200
			CHANNELS 3 Xrotation Yrotation Zrotation
			JOINT newVegas:RightLeg
			{
				OFFSET 0.018946 -31.938133 0.493100
				CHANNELS 3 Xrotation Yrotation Zrotation
				JOINT newVegas:RightFoot
				{
					OFFSET -0.018946 -31.938126 -4.336299
					CHANNELS 3 Xrotation Yrotation Zrotation
					JOINT newVegas:RightToeBase
					{
						OFFSET -0.943001 -26.722004 15.023500
						CHANNELS 3 Xrotation Yrotation Zrotation
						End Site
						{
							OFFSET 0.000000 30.670187 0.000000
						}
					}
				}
				JOINT newVegas:Right_PantLeg
				{
					OFFSET -0.661674 -9.044716 -1.108900
					CHANNELS 3 Xrotation Yrotation Zrotation
					End Site
					{
						OFFSET -1.415958 20.635269 0.000000
					}
				}
			}
		}
	}
	JOINT newVegas:Spine
	{
		OFFSET 0.000000 10.199997 -0.299500
		CHANNELS 3 Xrotation Yrotation Zrotation
		JOINT newVegas:Spine1
		{
			OFFSET 0.000000 11.900002 -1.516600
			CHANNELS 3 Xrotation Yrotation Zrotation
			JOINT newVegas:Spine2
			{
				OFFSET 0.000000 13.600006 -2.842500
				CHANNELS 3 Xrotation Yrotation Zrotation
				JOINT newVegas:Neck
				{
					OFFSET 0.000000 9.624100 -2.890100
					CHANNELS 3 Xrotation Yrotation Zrotation
					JOINT newVegas:Head
					{
						OFFSET 0.000000 14.068802 -1.351900
						CHANNELS 3 Xrotation Yrotation Zrotation
						JOINT newVegas:Hair_Back
						{
							OFFSET 0.000000 3.231903 -17.524799
							CHANNELS 3 Xrotation Yrotation Zrotation
							End Site
							{
								OFFSET 0.000000 19.849884 0.000000
							}
						}
						JOINT newVegas:Hair_Front
						{
							OFFSET 0.000000 31.260406 4.573800
							CHANNELS 3 Xrotation Yrotation Zrotation
							JOINT newVegas:Hair_Front1
							{
								OFFSET 0.000000 2.284103 11.993300
								CHANNELS 3 Xrotation Yrotation Zrotation
								JOINT newVegas:Hair_Front2
								{
									OFFSET 0.000000 2.284103 11.993300
									CHANNELS 3 Xrotation Yrotation Zrotation
									End Site
									{
										OFFSET 0.000000 12.208862 0.000000
									}
								}
							}
						}
						JOINT newVegas:Jowel
						{
							OFFSET 0.000000 -7.458206 6.864100
							CHANNELS 3 Xrotation Yrotation Zrotation
							End Site
							{
								OFFSET 0.000000 19.849884 0.000000
							}
						}
					}
				}
				JOINT newVegas:LeftShoulder
				{
					OFFSET 15.263000 10.923401 -0.547700
					CHANNELS 3 Xrotation Yrotation Zrotation
					JOINT newVegas:LeftArm
					{
						OFFSET 25.438599 -2.830597 -13.032500
						CHANNELS 3 Xrotation Yrotation Zrotation
						JOINT newVegas:LeftForeArm
						{
							OFFSET 29.960503 0.000000 0.000000
							CHANNELS 3 Xrotation Yrotation Zrotation
							JOINT newVegas:LeftHand
							{
								OFFSET 27.849251 0.000000 0.000000
								CHANNELS 3 Xrotation Yrotation Zrotation
								JOINT newVegas:LeftHandThumb1
								{
									OFFSET 4.487587 -3.305161 6.305391
									CHANNELS 3 Xrotation Yrotation Zrotation
									JOINT newVegas:LeftHandThumb2
									{
										OFFSET 5.480453 -3.164139 3.164143
										CHANNELS 3 Xrotation Yrotation Zrotation
										JOINT newVegas:LeftHandThumb3
										{
											OFFSET 5.159721 -2.978973 2.978967
											CHANNELS 3 Xrotation Yrotation Zrotation
											End Site
											{
												OFFSET 2.494507 5.926697 1.738678
											}
										}
									}
								}
								JOINT newVegas:LeftHandIndex1
								{
									OFFSET 18.578728 -0.527832 5.208049
									CHANNELS 3 Xrotation Yrotation Zrotation
									JOINT newVegas:LeftHandIndex2
									{
										OFFSET 3.192009 0.000000 0.000000
										CHANNELS 3 Xrotation Yrotation Zrotation
										JOINT newVegas:LeftHandIndex3
										{
											OFFSET 3.835129 0.000000 0.000000
											CHANNELS 3 Xrotation Yrotation Zrotation
											End Site
											{
												OFFSET -0.034599 3.816971 0.371180
											}
										}
									}
								}
								JOINT newVegas:LeftHandMiddle1
								{
									OFFSET 18.476105 0.000000 0.000000
									CHANNELS 3 Xrotation Yrotation Zrotation
									JOINT newVegas:LeftHandMiddle2
									{
										OFFSET 3.324875 0.000000 0.000000
										CHANNELS 3 Xrotation Yrotation Zrotation
										JOINT newVegas:LeftHandMiddle3
										{
											OFFSET 4.596550 0.000000 0.000000
											CHANNELS 3 Xrotation Yrotation Zrotation
											End Site
											{
												OFFSET 0.057701 4.578827 0.399218
											}
										}
									}
								}
								JOINT newVegas:LeftHandRing1
								{
									OFFSET 17.732719 0.121887 -4.201567
									CHANNELS 3 Xrotation Yrotation Zrotation
									JOINT newVegas:LeftHandRing2
									{
										OFFSET 2.733170 0.000000 0.000000
										CHANNELS 3 Xrotation Yrotation Zrotation
										JOINT newVegas:LeftHandRing3
										{
											OFFSET 3.178268 0.000000 0.000000
											CHANNELS 3 Xrotation Yrotation Zrotation
											End Site
											{
												OFFSET 0.119102 3.170624 0.185394
											}
										}
									}
								}
								JOINT newVegas:LeftHandPinky1
								{
									OFFSET 15.989624 -0.606689 -7.535461
									CHANNELS 3 Xrotation Yrotation Zrotation
									JOINT newVegas:LeftHandPinky2
									{
										OFFSET 2.538986 0.000000 0.000000
										CHANNELS 3 Xrotation Yrotation Zrotation
										JOINT newVegas:LeftHandPinky3
										{
											OFFSET 2.593102 0.000000 0.000000
											CHANNELS 3 Xrotation Yrotation Zrotation
											End Site
											{
												OFFSET -0.150902 2.584198 0.152708
											}
										}
									}
								}
							}
							JOINT newVegas:Left_Sleeve
							{
								OFFSET 0.267448 -0.649796 0.577675
								CHANNELS 3 Xrotation Yrotation Zrotation
								End Site
								{
									OFFSET 0.000000 15.991241 0.000000
								}
							}
							JOINT newVegas:Left_CapeC
							{
								OFFSET 15.715958 -8.608795 -6.935905
								CHANNELS 3 Xrotation Yrotation Zrotation
								JOINT newVegas:Left_CapeC1
								{
									OFFSET 0.000000 -8.688499 0.000000
									CHANNELS 3 Xrotation Yrotation Zrotation
									End Site
									{
										OFFSET 0.000000 8.688499 0.000000
									}
								}
							}
						}
						JOINT newVegas:Left_CapeB
						{
							OFFSET 26.118385 -8.608795 -7.079235
							CHANNELS 3 Xrotation Yrotation Zrotation
							JOINT newVegas:Left_CapeB1
							{
								OFFSET 0.000000 -8.688499 0.000000
								CHANNELS 3 Xrotation Yrotation Zrotation
								End Site
								{
									OFFSET 0.000000 8.688499 0.000000
								}
							}
						}
						JOINT newVegas:Left_CapeA
						{
							OFFSET 5.115639 -8.608795 -10.395809
							CHANNELS 3 Xrotation Yrotation Zrotation
							JOINT newVegas:Left_CapeA1
							{
								OFFSET 0.000000 -8.688499 0.000000
								CHANNELS 3 Xrotation Yrotation Zrotation
								End Site
								{
									OFFSET 0.000000 8.688499 0.000000
								}
							}
						}
					}
				}
				JOINT newVegas:RightShoulder
				{
					OFFSET -15.263000 10.923401 -0.547700
					CHANNELS 3 Xrotation Yrotation Zrotation
					JOINT newVegas:RightArm
					{
						OFFSET -25.438599 -2.830597 -13.032500
						CHANNELS 3 Xrotation Yrotation Zrotation
						JOINT newVegas:RightForeArm
						{
							OFFSET -29.960503 0.000000 0.000000
							CHANNELS 3 Xrotation Yrotation Zrotation
							JOINT newVegas:RightHand
							{
								OFFSET -27.849251 0.000000 0.000000
								CHANNELS 3 Xrotation Yrotation Zrotation
								JOINT newVegas:RightHandThumb1
								{
									OFFSET -4.487587 -3.305161 6.305391
									CHANNELS 3 Xrotation Yrotation Zrotation
									JOINT newVegas:RightHandThumb2
									{
										OFFSET -5.480453 -3.164139 3.164143
										CHANNELS 3 Xrotation Yrotation Zrotation
										JOINT newVegas:RightHandThumb3
										{
											OFFSET -5.159721 -2.978973 2.978967
											CHANNELS 3 Xrotation Yrotation Zrotation
											End Site
											{
												OFFSET -2.494507 5.926697 1.738678
											}
										}
									}
								}
								JOINT newVegas:RightHandIndex1
								{
									OFFSET -18.578728 -0.527832 5.208049
									CHANNELS 3 Xrotation Yrotation Zrotation
									JOINT newVegas:RightHandIndex2
									{
										OFFSET -3.192009 0.000000 0.000000
										CHANNELS 3 Xrotation Yrotation Zrotation
										JOINT newVegas:RightHandIndex3
										{
											OFFSET -3.835129 0.000000 0.000000
											CHANNELS 3 Xrotation Yrotation Zrotation
											End Site
											{
												OFFSET 0.034599 3.816971 0.371180
											}
										}
									}
								}
								JOINT newVegas:RightHandMiddle1
								{
									OFFSET -18.476105 0.000000 0.000000
									CHANNELS 3 Xrotation Yrotation Zrotation
									JOINT newVegas:RightHandMiddle2
									{
										OFFSET -3.324875 0.000000 0.000000
										CHANNELS 3 Xrotation Yrotation Zrotation
										JOINT newVegas:RightHandMiddle3
										{
											OFFSET -4.596550 0.000000 0.000000
											CHANNELS 3 Xrotation Yrotation Zrotation
											End Site
											{
												OFFSET -0.057701 4.578827 0.399218
											}
										}
									}
								}
								JOINT newVegas:RightHandRing1
								{
									OFFSET -17.732719 0.121887 -4.201567
									CHANNELS 3 Xrotation Yrotation Zrotation
									JOINT newVegas:RightHandRing2
									{
										OFFSET -2.733170 0.000000 0.000000
										CHANNELS 3 Xrotation Yrotation Zrotation
										JOINT newVegas:RightHandRing3
										{
											OFFSET -3.178268 0.000000 0.000000
											CHANNELS 3 Xrotation Yrotation Zrotation
											End Site
											{
												OFFSET -0.119102 3.170624 0.185394
											}
										}
									}
								}
								JOINT newVegas:RightHandPinky1
								{
									OFFSET -15.989624 -0.606689 -7.535461
									CHANNELS 3 Xrotation Yrotation Zrotation
									JOINT newVegas:RightHandPinky2
									{
										OFFSET -2.538986 0.000000 0.000000
										CHANNELS 3 Xrotation Yrotation Zrotation
										JOINT newVegas:RightHandPinky3
										{
											OFFSET -2.593102 0.000000 0.000000
											CHANNELS 3 Xrotation Yrotation Zrotation
											End Site
											{
												OFFSET 0.150902 2.584198 0.152708
											}
										}
									}
								}
							}
							JOINT newVegas:Right_CapeC
							{
								OFFSET -15.715958 -8.608795 -6.935905
								CHANNELS 3 Xrotation Yrotation Zrotation
								JOINT newVegas:Right_CapeC1
								{
									OFFSET 0.000000 -8.688499 0.000000
									CHANNELS 3 Xrotation Yrotation Zrotation
									End Site
									{
										OFFSET 0.000000 8.688499 0.000000
									}
								}
							}
							JOINT newVegas:Right_Sleeve
							{
								OFFSET -0.267448 -0.649994 0.577675
								CHANNELS 3 Xrotation Yrotation Zrotation
								End Site
								{
									OFFSET 0.000000 15.991302 0.000000
								}
							}
						}
						JOINT newVegas:Right_CapeA
						{
							OFFSET -5.115540 -8.608795 -10.395824
							CHANNELS 3 Xrotation Yrotation Zrotation
							JOINT newVegas:Right_CapeA1
							{
								OFFSET 0.000000 -8.688499 0.000000
								CHANNELS 3 Xrotation Yrotation Zrotation
								End Site
								{
									OFFSET 0.000000 8.688499 0.000000
								}
							}
						}
						JOINT newVegas:Right_CapeB
						{
							OFFSET -26.118187 -8.608795 -7.079266
							CHANNELS 3 Xrotation Yrotation Zrotation
							JOINT newVegas:Right_CapeB1
							{
								OFFSET 0.000000 -8.688499 0.000000
								CHANNELS 3 Xrotation Yrotation Zrotation
								End Site
								{
									OFFSET 0.000000 8.688499 0.000000
								}
							}
						}
					}
				}
				JOINT newVegas:Left_Collar
				{
					OFFSET 18.625099 8.655502 8.828100
					CHANNELS 3 Xrotation Yrotation Zrotation
					JOINT newVegas:Left_Collar1
					{
						OFFSET 14.783401 10.540405 -1.259500
						CHANNELS 3 Xrotation Yrotation Zrotation
						End Site
						{
							OFFSET 0.000000 18.199875 0.000000
						}
					}
				}
				JOINT newVegas:Collar_Back
				{
					OFFSET 0.000000 15.630707 -20.132601
					CHANNELS 3 Xrotation Yrotation Zrotation
					End Site
					{
						OFFSET 0.000000 22.523010 0.000000
					}
				}
				JOINT newVegas:Left_Peck
				{
					OFFSET 17.239599 -5.132599 25.482599
					CHANNELS 3 Xrotation Yrotation Zrotation
					End Site
					{
						OFFSET 0.000000 22.523010 0.000000
					}
				}
				JOINT newVegas:Right_Peck
				{
					OFFSET -17.239599 -5.132202 25.482599
					CHANNELS 3 Xrotation Yrotation Zrotation
					End Site
					{
						OFFSET 0.000000 22.523010 0.000000
					}
				}
				JOINT newVegas:Right_Collar
				{
					OFFSET -18.625099 8.655792 8.828100
					CHANNELS 3 Xrotation Yrotation Zrotation
					JOINT newVegas:Right_Collar1
					{
						OFFSET -14.783401 10.539993 -1.259500
						CHANNELS 3 Xrotation Yrotation Zrotation
						End Site
						{
							OFFSET 0.000000 18.199631 0.000000
						}
					}
				}
			}
		}
		JOINT newVegas:Belly
		{
			OFFSET 0.000000 -6.540398 9.014299
			CHANNELS 3 Xrotation Yrotation Zrotation
			End Site
			{
				OFFSET 0.000000 11.566666 0.000000
			}
		}
	}
	JOINT newVegas:ElvisFacialAnim_Joint
	{
		OFFSET 1.000000 -95.330101 -8.825800
		CHANNELS 3 Xrotation Yrotation Zrotation
		End Site
		{
			OFFSET 0.000000 35.315800 0.000000
		}
	}
}
MOTION
Frames: 4
Frame Time: 0.016667
7.421640 92.801521 90.565697 -171.520462 67.161332 178.284740 0.000000 0.000001 0.000001 -28.111069 8.424694 8.711634 34.328770 3.405160 2.745123 -1.316960 1.663057 -16.435506 0.000000 0.000002 -0.000000 -0.000000 -0.000000 0.000000 -4.182133 -10.024262 -14.318813 32.587324 -8.850099 -3.045787 -23.687082 -6.672126 12.920080 -0.000000 0.000000 -0.000000 0.000001 -0.000000 -0.000002 10.481410 -3.519196 -6.258361 5.905956 -0.746139 -0.137395 5.913737 -0.679950 -0.131283 -2.186982 0.086193 0.623812 -2.186993 0.086232 0.623798 -0.000000 0.000001 0.000000 -2.187051 0.086252 0.623795 -2.186837 0.086253 0.623798 -0.000001 -0.000001 -0.000000 -0.000000 0.000001 -0.000000 4.565334 8.264144 -9.764207 -7.251023 -13.343467 -59.256495 -0.000007 -11.301086 -0.000006 9.160504 -15.323033 -1.192313 -3.469765 3.607322 7.883172 9.703618 22.223516 2.891199 -0.000001 0.000003 -0.000003 0.162354 3.429612 -10.498183 0.209649 1.554733 -15.358561 -0.000001 -0.000000 0.000001 0.362547 4.206368 -18.344237 0.474609 2.311787 -23.200226 0.000000 -0.000000 -0.000004 0.689030 4.991699 -26.673260 0.865742 3.066782 -31.521446 -0.000000 -0.000001 0.000001 0.902506 5.377897 -30.995378 1.110588 3.433613 -35.838166 0.000000 -0.000004 0.000004 -0.000001 0.000000 -0.000001 -0.000001 0.000000 -0.000001 -0.000001 0.000000 -0.000001 -0.000000 -0.000002 -0.000001 -0.000000 -0.000002 -0.000001 -0.000000 -0.000002 -0.000001 0.000000 -0.000002 -0.000001 1.424811 6.319842 17.460013 -2.214347 -4.391947 64.929882 0.000021 27.167083 -0.000003 -23.146965 -17.077643 -15.152689 -1.986172 -5.435661 -3.761593 8.766460 -20.697688 -3.062081 0.000000 -0.000003 -0.000001 2.057123 -6.108266 55.293571 5.419354 -4.594512 99.429393 -0.000001 0.000000 0.000002 2.592849 -6.426532 62.973443 4.946620 -4.648172 93.567308 -0.000000 -0.000000 0.000003 2.854987 -6.549333 66.538583 4.919154 -4.649793 93.228216 -0.000001 0.000001 -0.000003 1.542115 -5.696842 47.168214 2.898951 -4.313186 67.797359 -0.000001 0.000002 -0.000000 0.000001 -0.000001 -0.000000 0.000001 -0.000001 0.000000 0.000001 -0.000001 0.000000 -0.000001 0.000001 -0.000000 -0.000001 0.000002 0.000000 -0.000001 0.000001 -0.000000 -0.000001 0.000002 0.000000 0.000001 -0.000001 0.000000 0.000001 -0.000001 0.000000 0.000001 -0.000001 0.000000 0.000001 -0.000001 0.000000 0.000001 -0.000001 0.000000 0.000001 -0.000001 0.000000 0.000001 -0.000001 0.000000 -0.000000 0.000002 -0.000000 0.000000 0.000001 0.000001 
7.490128 92.679039 90.035782 -172.163989 65.261208 178.940356 0.000000 0.000001 0.000000 -27.713049 8.307808 8.666330 33.503697 4.389202 3.047478 -2.013534 2.078136 -15.791216 0.000000 0.000001 -0.000000 0.000001 0.000001 0.000001 -2.934095 -10.698749 -14.205433 31.868276 -8.825254 -2.995078 -23.841687 -8.222759 13.096311 0.000000 -0.000000 0.000000 -0.000003 0.000000 -0.000000 10.522546 -3.495680 -6.461838 5.937754 -0.731595 -0.053677 5.944720 -0.659876 -0.046723 -2.186741 0.070637 0.620598 -2.186741 0.070642 0.620596 0.000001 0.000001 -0.000001 -2.186743 0.070621 0.620601 -2.186670 0.070645 0.620596 -0.000000 0.000000 0.000000 0.000001 0.000001 -0.000001 4.439878 8.094333 -9.464042 -6.237170 -11.834758 -59.241666 0.000003 -11.844599 0.000010 9.598146 -13.812550 -2.183860 -3.469764 3.607325 7.883171 9.703616 22.223515 2.891198 0.000002 -0.000001 -0.000004 0.162353 3.429613 -10.498176 0.209649 1.554734 -15.358561 -0.000000 0.000000 -0.000000 0.362547 4.206370 -18.344237 0.474609 2.311786 -23.200226 0.000001 -0.000001 -0.000003 0.689029 4.991701 -26.673251 0.865742 3.066781 -31.521449 0.000001 0.000001 -0.000000 0.902504 5.377897 -30.995378 1.110591 3.433614 -35.838166 0.000001 -0.000003 -0.000002 -0.000000 0.000000 0.000002 -0.000000 0.000000 0.000002 -0.000000 0.000000 0.000003 -0.000000 -0.000003 0.000001 0.000000 -0.000003 0.000000 -0.000000 -0.000003 0.000001 0.000000 -0.000002 0.000001 1.440126 6.247025 17.504253 -2.407538 -5.275760 64.582512 -0.000003 26.607740 0.000003 -21.465304 -16.875348 -14.388029 -1.986173 -5.435662 -3.761587 8.766462 -20.697684 -3.062082 0.000002 -0.000001 -0.000001 2.057123 -6.108266 55.293571 5.419354 -4.594515 99.429393 -0.000001 0.000001 0.000001 2.592849 -6.426535 62.973443 4.946619 -4.648170 93.567308 0.000000 0.000000 -0.000003 2.854988 -6.549332 66.538590 4.919151 -4.649794 93.228216 0.000000 0.000002 0.000000 1.542113 -5.696846 47.168214 2.898953 -4.313188 67.797359 0.000002 0.000002 0.000001 0.000000 0.000000 0.000000 -0.000000 0.000000 0.000000 -0.000000 0.000001 0.000000 -0.000002 0.000000 -0.000002 -0.000002 0.000000 -0.000002 -0.000002 0.000000 -0.000002 -0.000002 -0.000000 -0.000002 0.000002 -0.000001 -0.000000 0.000002 -0.000001 -0.000000 0.000002 -0.000001 -0.000000 0.000002 -0.000001 -0.000000 0.000002 -0.000001 -0.000000 0.000002 -0.000001 -0.000000 0.000002 -0.000001 -0.000000 -0.000000 0.000002 -0.000000 0.000000 0.000001 0.000000 
7.560739 92.540329 89.445107 -172.650230 63.364915 179.436050 -0.000000 0.000000 0.000000 -27.214400 8.121402 8.577670 32.544424 5.157864 3.310446 -2.514240 2.600870 -15.226414 -0.000000 0.000000 0.000000 0.000000 -0.000001 -0.000000 -1.574930 -11.392339 -14.085325 31.052557 -8.808196 -2.936785 -23.958722 -9.754736 13.327577 0.000000 -0.000000 -0.000000 0.000001 0.000000 -0.000000 10.592570 -3.453433 -6.683480 5.956439 -0.710477 0.027105 5.962352 -0.633107 0.034884 -2.187126 0.054413 0.616761 -2.187186 0.054382 0.616742 -0.000000 -0.000002 0.000000 -2.187057 0.054263 0.616792 -2.187053 0.054576 0.616727 -0.000001 -0.000001 -0.000000 -0.000000 -0.000002 0.000000 4.315410 7.926125 -9.159259 -5.366290 -10.439505 -59.331149 -0.000011 -12.405896 0.000006 10.104730 -12.230444 -3.230665 -3.469763 3.607326 7.883173 9.703616 22.223515 2.891200 -0.000000 -0.000001 -0.000004 0.162354 3.429613 -10.498181 0.209649 1.554734 -15.358561 0.000000 -0.000000 -0.000001 0.362547 4.206369 -18.344235 0.474609 2.311786 -23.200228 0.000000 -0.000000 -0.000000 0.689030 4.991699 -26.673256 0.865744 3.066781 -31.521453 0.000001 -0.000001 0.000002 0.902504 5.377895 -30.995375 1.110593 3.433615 -35.838166 -0.000001 0.000000 0.000000 -0.000000 -0.000000 -0.000002 -0.000000 -0.000000 -0.000002 -0.000001 -0.000000 -0.000002 -0.000000 0.000001 0.000000 -0.000000 0.000003 0.000000 -0.000000 0.000001 0.000000 0.000000 0.000003 0.000001 1.452236 6.186885 17.530475 -2.514462 -6.093102 64.276158 0.000012 26.010597 -0.000008 -19.830684 -16.637574 -13.686413 -1.986177 -5.435665 -3.761584 8.766462 -20.697690 -3.062082 -0.000002 -0.000002 0.000003 2.057122 -6.108267 55.293568 5.419354 -4.594514 99.429393 -0.000001 0.000001 -0.000000 2.592850 -6.426534 62.973443 4.946620 -4.648172 93.567308 0.000001 -0.000000 -0.000001 2.854984 -6.549332 66.538583 4.919154 -4.649793 93.228216 0.000001 0.000004 0.000000 1.542111 -5.696843 47.168217 2.898952 -4.313189 67.797359 0.000002 0.000003 0.000001 0.000001 0.000000 0.000001 -0.000001 0.000000 0.000000 0.000001 0.000000 0.000002 -0.000001 0.000001 0.000002 -0.000001 0.000000 0.000001 -0.000001 0.000001 0.000002 -0.000001 -0.000000 0.000001 0.000002 0.000001 -0.000001 0.000002 0.000001 -0.000001 0.000002 0.000001 -0.000001 0.000002 0.000001 -0.000001 0.000002 0.000001 -0.000001 0.000002 0.000001 -0.000001 0.000002 0.000001 -0.000001 0.000001 0.000001 -0.000000 -0.000000 0.000000 0.000000 
7.630287 92.384430 88.794556 -173.030808 61.482030 179.825179 0.000000 0.000001 0.000000 -26.645203 7.888693 8.466208 31.498220 5.744809 3.538364 -2.780439 3.225633 -14.850457 -0.000000 -0.000001 -0.000000 -0.000000 -0.000002 -0.000001 -0.094812 -12.104086 -13.952535 30.110209 -8.795950 -2.870822 -24.039747 -11.280577 13.616842 0.000000 0.000000 -0.000000 0.000002 -0.000000 -0.000000 10.675761 -3.395968 -6.918518 5.960719 -0.683480 0.100004 5.965380 -0.600646 0.108447 -2.188809 0.037597 0.612321 -2.188819 0.037574 0.612335 -0.000001 -0.000001 0.000000 -2.188801 0.037629 0.612318 -2.188661 0.037553 0.612329 0.000001 0.000000 0.000000 -0.000001 -0.000001 0.000000 4.191113 7.756938 -8.850423 -4.627758 -9.151175 -59.511725 0.000000 -12.942799 -0.000003 10.682213 -10.597889 -4.326571 -3.469765 3.607323 7.883174 9.703619 22.223518 2.891205 0.000001 -0.000002 0.000000 0.162354 3.429612 -10.498178 0.209650 1.554733 -15.358561 0.000000 0.000000 0.000000 0.362548 4.206368 -18.344233 0.474609 2.311786 -23.200228 -0.000000 0.000000 -0.000001 0.689030 4.991696 -26.673251 0.865742 3.066781 -31.521449 0.000001 -0.000002 0.000003 0.902505 5.377897 -30.995378 1.110595 3.433617 -35.838173 -0.000000 -0.000001 -0.000005 0.000000 0.000000 -0.000000 0.000000 0.000000 -0.000000 -0.000001 0.000001 -0.000000 -0.000000 0.000000 -0.000001 0.000000 -0.000001 -0.000002 -0.000000 0.000000 -0.000001 0.000000 0.000000 -0.000001 1.460379 6.141546 17.531887 -2.497082 -6.813983 64.020347 0.000009 25.388732 -0.000004 -18.293294 -16.391173 -13.073748 -1.986175 -5.435664 -3.761588 8.766462 -20.697684 -3.062086 -0.000000 0.000003 -0.000000 2.057124 -6.108265 55.293568 5.419353 -4.594512 99.429393 0.000001 -0.000000 0.000003 2.592851 -6.426535 62.973443 4.946619 -4.648171 93.567308 -0.000001 -0.000001 -0.000002 2.854988 -6.549333 66.538583 4.919152 -4.649794 93.228216 -0.000002 -0.000001 0.000003 1.542112 -5.696842 47.168214 2.898951 -4.313188 67.797359 0.000001 0.000003 -0.000001 -0.000000 0.000000 -0.000001 -0.000000 0.000000 -0.000001 -0.000000 0.000000 -0.000000 -0.000001 0.000001 -0.000000 -0.000001 0.000001 0.000001 -0.000001 0.000001 -0.000000 -0.000001 0.000001 0.000001 -0.000000 -0.000001 0.000001 -0.000000 -0.000001 0.000001 -0.000000 -0.000001 0.000001 -0.000000 -0.000001 0.000001 -0.000000 -0.000001 0.000001 -0.000000 -0.000001 0.000001 -0.000000 -0.000001 0.000001 -0.000000 -0.000002 0.000001 0.000000 0.000001 0.000000 
